<mxGraphModel dx="0" dy="0" grid="1" gridSize="10" guides="1" tooltips="1" connect="1" arrows="1" fold="1" page="0" pageScale="1" background="none" math="0" shadow="0">
  <root>
    <mxCell id="0" />
    <mxCell id="1" parent="0" />
    <mxCell id="node0" parent="1" vertex="1" value="&lt;p style=&quot;margin:0px;margin-top:4px;text-align:center;&quot;&gt;&lt;b&gt;Aplicacion&lt;/b&gt;&lt;/p&gt;&lt;hr size=&quot;1&quot;/&gt;&lt;p style=&quot;margin:0 0 0 4px;line-height:1.6;&quot;&gt;+ Aplicacion(): &lt;/p&gt;&lt;hr size=&quot;1&quot;/&gt;&lt;p style=&quot;margin:0 0 0 4px;line-height:1.6;&quot;&gt;+ main(String[]): void&lt;/p&gt;" style="verticalAlign=top;align=left;overflow=fill;fontSize=14;fontFamily=Helvetica;html=1;rounded=0;shadow=0;comic=0;labelBackgroundColor=none;strokeWidth=1;">
      <mxGeometry x="-431" y="1146" width="149" height="83" as="geometry" />
    </mxCell>
    <mxCell id="node3" parent="1" vertex="1" value="&lt;p style=&quot;margin:0px;margin-top:4px;text-align:center;&quot;&gt;&lt;b&gt;Datos&lt;/b&gt;&lt;/p&gt;&lt;hr size=&quot;1&quot;/&gt;&lt;p style=&quot;margin:0 0 0 4px;line-height:1.6;&quot;&gt;+ Datos(int, int, int, int, int, int): &lt;/p&gt;&lt;hr size=&quot;1&quot;/&gt;&lt;p style=&quot;margin:0 0 0 4px;line-height:1.6;&quot;&gt;+ i: int&lt;br/&gt;+ pruebas2: double[]&lt;br/&gt;+ contador: int&lt;br/&gt;+ a: int&lt;br/&gt;+ pruebas1: double[]&lt;br/&gt;+ pruebas6: double[]&lt;br/&gt;+ pruebas5: double[]&lt;br/&gt;+ pruebas4: double[]&lt;br/&gt;+ pruebas3: double[]&lt;/p&gt;&lt;hr size=&quot;1&quot;/&gt;&lt;p style=&quot;margin:0 0 0 4px;line-height:1.6;&quot;&gt;+ getPruebas4(): double[]&lt;br/&gt;+ getPruebas1(): double[]&lt;br/&gt;+ getPruebas2(): double[]&lt;br/&gt;+ getPruebas3(): double[]&lt;br/&gt;+ run(): void&lt;br/&gt;+ generacionDatos(): void&lt;br/&gt;+ getPruebas5(): double[]&lt;br/&gt;+ tomaPrueba(double[], double[]): double[]&lt;br/&gt;+ getPruebas6(): double[]&lt;br/&gt;+ asignacionArreglos(double[], double[], double[], double[], double[], double[]): void&lt;/p&gt;" style="verticalAlign=top;align=left;overflow=fill;fontSize=14;fontFamily=Helvetica;html=1;rounded=0;shadow=0;comic=0;labelBackgroundColor=none;strokeWidth=1;">
      <mxGeometry x="558" y="746" width="373" height="474" as="geometry" />
    </mxCell>
    <mxCell id="node4" parent="1" vertex="1" value="&lt;p style=&quot;margin:0px;margin-top:4px;text-align:center;&quot;&gt;&lt;b&gt;Generador&lt;/b&gt;&lt;/p&gt;&lt;hr size=&quot;1&quot;/&gt;&lt;p style=&quot;margin:0 0 0 4px;line-height:1.6;&quot;&gt;+ Generador(): &lt;/p&gt;&lt;hr size=&quot;1&quot;/&gt;&lt;p style=&quot;margin:0 0 0 4px;line-height:1.6;&quot;&gt;+ i: int&lt;br/&gt;+ sc: Scanner&lt;br/&gt;+ numeroG: int&lt;br/&gt;+ b: int&lt;br/&gt;+ a: int&lt;br/&gt;+ xo: int&lt;br/&gt;+ semilla: int&lt;br/&gt;+ uniformidad: double&lt;br/&gt;+ numGenerados: double[]&lt;br/&gt;+ m: int&lt;/p&gt;&lt;hr size=&quot;1&quot;/&gt;&lt;p style=&quot;margin:0 0 0 4px;line-height:1.6;&quot;&gt;+ datos(int, int, int): void&lt;br/&gt;+ getNumGenerados(): double[]&lt;br/&gt;+ generador(): void&lt;/p&gt;" style="verticalAlign=top;align=left;overflow=fill;fontSize=14;fontFamily=Helvetica;html=1;rounded=0;shadow=0;comic=0;labelBackgroundColor=none;strokeWidth=1;">
      <mxGeometry x="338" y="307" width="205" height="342" as="geometry" />
    </mxCell>
    <mxCell id="node2" parent="1" vertex="1" value="&lt;p style=&quot;margin:0px;margin-top:4px;text-align:center;&quot;&gt;&lt;b&gt;Simulacion&lt;/b&gt;&lt;/p&gt;&lt;hr size=&quot;1&quot;/&gt;&lt;p style=&quot;margin:0 0 0 4px;line-height:1.6;&quot;&gt;+ Simulacion(double[], double[], double[], double[], double[], double[]): &lt;/p&gt;&lt;hr size=&quot;1&quot;/&gt;&lt;p style=&quot;margin:0 0 0 4px;line-height:1.6;&quot;&gt;+ cont: double&lt;br/&gt;+ horaLlegadas: double[]&lt;br/&gt;+ tInsp: double[]&lt;br/&gt;+ ri2: double[]&lt;br/&gt;+ horaSalidaRep: double[]&lt;br/&gt;+ tiempoEspReparacion: double[]&lt;br/&gt;+ salidaInsp: double[]&lt;br/&gt;+ horaEntradaRep: double[]&lt;br/&gt;+ descompostura: String[]&lt;br/&gt;+ entradas: double[]&lt;br/&gt;+ ri3: double[]&lt;br/&gt;+ contB: double&lt;br/&gt;+ usoEstacion: int[]&lt;br/&gt;+ B: double&lt;br/&gt;+ ri5: double[]&lt;br/&gt;+ autobusDescompuesto: double[]&lt;br/&gt;+ A: double&lt;br/&gt;+ xllegadasCuadruple: double[]&lt;br/&gt;+ contA: double&lt;br/&gt;+ xllegadas: double[]&lt;br/&gt;+ timepoTotalSistema: double[]&lt;br/&gt;+ usoB: double&lt;br/&gt;+ tiempoEspInsp: double[]&lt;br/&gt;+ xUDiscreta: double[]&lt;br/&gt;+ usoA: double&lt;br/&gt;+ ri1: double[]&lt;br/&gt;+ autobusesRep: int[]&lt;br/&gt;+ ri4: double[]&lt;br/&gt;+ horaLlegadasCuadrupe: double[]&lt;br/&gt;+ tiempoReparacion: double[]&lt;br/&gt;+ ri6: double[]&lt;/p&gt;&lt;hr size=&quot;1&quot;/&gt;&lt;p style=&quot;margin:0 0 0 4px;line-height:1.6;&quot;&gt;+ llegadas(): void&lt;br/&gt;+ impresionSimulacion(): void&lt;br/&gt;+ operacionReparacion(int): void&lt;br/&gt;+ run(): void&lt;br/&gt;+ inspeccion(): void&lt;br/&gt;+ impresionReparacion(): void&lt;br/&gt;+ reparación(): void&lt;br/&gt;+ tiempoEspInsp(): void&lt;br/&gt;+ impresionTimeSistema(): void&lt;br/&gt;+ descompostura(): void&lt;br/&gt;+ tiempoEnSistema(): void&lt;/p&gt;" style="verticalAlign=top;align=left;overflow=fill;fontSize=14;fontFamily=Helvetica;html=1;rounded=0;shadow=0;comic=0;labelBackgroundColor=none;strokeWidth=1;">
      <mxGeometry x="-462" y="96" width="359" height="980" as="geometry" />
    </mxCell>
    <mxCell id="node1" parent="1" vertex="1" value="&lt;p style=&quot;margin:0px;margin-top:4px;text-align:center;&quot;&gt;&lt;b&gt;VariablesAleatorias&lt;/b&gt;&lt;/p&gt;&lt;hr size=&quot;1&quot;/&gt;&lt;p style=&quot;margin:0 0 0 4px;line-height:1.6;&quot;&gt;+ VariablesAleatorias(double[], double[], double[], double[], double[], double[]): &lt;/p&gt;&lt;hr size=&quot;1&quot;/&gt;&lt;p style=&quot;margin:0 0 0 4px;line-height:1.6;&quot;&gt;+ xllegadas: double[]&lt;br/&gt;+ xllegadasCuadruple: double[]&lt;br/&gt;+ horaSalidaRep: double[]&lt;br/&gt;+ ri6: double[]&lt;br/&gt;+ horaEntradaRep: double[]&lt;br/&gt;+ xUDiscreta: double[]&lt;br/&gt;+ salidaInsp: double[]&lt;br/&gt;+ entradas: double[]&lt;br/&gt;+ ri3: double[]&lt;br/&gt;+ descompostura: String[]&lt;br/&gt;+ horaLlegadasCuadrupe: double[]&lt;br/&gt;+ ri1: double[]&lt;br/&gt;+ ri4: double[]&lt;br/&gt;+ horaLlegadas: double[]&lt;br/&gt;+ XRep: double[]&lt;br/&gt;+ tiempoTE: double[]&lt;br/&gt;+ tInsp: double[]&lt;br/&gt;+ ri5: double[]&lt;br/&gt;+ ri2: double[]&lt;/p&gt;&lt;hr size=&quot;1&quot;/&gt;&lt;p style=&quot;margin:0 0 0 4px;line-height:1.6;&quot;&gt;+ impresionLlegadasCuadruple(): void&lt;br/&gt;+ llegadas(): void&lt;br/&gt;+ llegadasCuadruple(): void&lt;br/&gt;+ impresionReparacion(): void&lt;br/&gt;+ generadorUniformeDisc(): void&lt;br/&gt;+ impresionInspeccion(): void&lt;br/&gt;+ descompostura(): void&lt;br/&gt;+ inspeccion(): void&lt;br/&gt;+ impresionDespom(): void&lt;br/&gt;+ impresionUniformeDisc(): void&lt;br/&gt;+ impresionLlegadas(): void&lt;br/&gt;+ reparación(): void&lt;br/&gt;+ run(): void&lt;/p&gt;" style="verticalAlign=top;align=left;overflow=fill;fontSize=14;fontFamily=Helvetica;html=1;rounded=0;shadow=0;comic=0;labelBackgroundColor=none;strokeWidth=1;">
      <mxGeometry x="-43" y="719" width="349" height="760" as="geometry" />
    </mxCell>
  </root>
</mxGraphModel>